<svg width="431" height="372" viewBox="0 0 431 372" fill="none" xmlns="http://www.w3.org/2000/svg">
<g clip-path="url(#clip0_225_1224)">
<path d="M0 368.232C0 368.775 0.435405 369.211 0.977596 369.211H430.022C430.565 369.211 431 368.775 431 368.232C431 367.689 430.565 367.253 430.022 367.253H0.977596C0.435399 367.253 0 367.689 0 368.232Z" fill="#176B87"/>
<path d="M139.985 39.5342L144.65 60.8572L134.726 90.5368L118.737 58.6485L120.956 40.1487L139.985 39.5342Z" fill="#FDB4B4"/>
<path d="M145.517 59.7529H117.911V93.1597H145.517V59.7529Z" fill="#176B87"/>
<path d="M134.165 50.2751C144.577 50.2751 153.018 41.8212 153.018 31.3929C153.018 20.9646 144.577 12.5107 134.165 12.5107C123.753 12.5107 115.312 20.9646 115.312 31.3929C115.312 41.8212 123.753 50.2751 134.165 50.2751Z" fill="#FDB4B4"/>
<path d="M117.754 45.4336C117.754 45.4336 103.7 19.4398 116.371 6.93091C129.042 -5.57798 139.214 2.6646 139.214 2.6646L145.022 2.4295C145.022 2.4295 146.233 7.00751 148.187 4.52924C150.14 2.05097 153.67 11.0765 153.67 11.0765C160.221 22.8931 137.51 25.5402 137.51 25.5402C137.51 25.5402 139.15 30.7722 137.483 31.8679C135.816 32.9636 131.363 37.0854 131.363 37.0854L127.376 40.1007L125.007 36.4858C125.007 36.4858 122.533 34.5295 121.283 35.3512C120.032 36.173 121.752 46.9855 121.752 46.9855L117.754 45.4336Z" fill="#2E2E41"/>
<path d="M95.1364 236.666L87.9282 344.352L105.648 344.953L129.075 237.568L95.1364 236.666Z" fill="#2E2E41"/>
<path d="M138.085 236.064L130.877 343.75L148.597 344.352L172.024 236.967L138.085 236.064Z" fill="#2E2E41"/>
<path d="M90.7959 261.269L100.229 143.985L85.7628 82.9117C84.5156 73.8332 90.2271 65.243 99.0421 62.9007L113.198 59.1394L119.463 52.8643L133.714 84.3829L142.614 52.8883L149.556 57.9442L170.143 67.0407L170.133 67.2537L166.831 141.029L174.202 260.225L173.875 260.229L90.7959 261.269Z" fill="#E8E9EA"/>
<path d="M147.459 343.128L152.59 358.469C152.59 358.469 172.663 361.202 172.976 367.426C173.288 373.649 145.695 370.047 129.538 370.86C113.38 371.673 126.83 354.15 126.83 354.15L128.552 344.08L147.459 343.128Z" fill="#2E2E41"/>
<path d="M105.557 342.023L110.688 357.364C110.688 357.364 130.762 360.097 131.074 366.321C131.386 372.545 103.793 368.942 87.6358 369.756C71.4785 370.569 84.9282 353.045 84.9282 353.045L86.65 342.975L105.557 342.023Z" fill="#2E2E41"/>
<path d="M80.5241 198.98C80.3065 195.955 80.8156 192.923 82.0086 190.135L78.1792 158.674L93.1799 157.287L95.4488 189.35C96.9563 191.979 97.8133 194.931 97.9481 197.96C98.3893 205.535 94.8463 211.902 90.0343 212.183C85.2222 212.464 80.9641 206.553 80.5241 198.98Z" fill="#FDB4B4"/>
<path d="M175.535 203.598C175.35 200.571 175.892 197.544 177.116 194.77L173.629 163.269L188.644 162.046L190.564 194.132C192.042 196.777 192.867 199.738 192.969 202.768C193.328 210.348 189.716 216.675 184.901 216.904C180.086 217.133 175.892 211.175 175.535 203.598Z" fill="#FDB4B4"/>
<path d="M78.1176 186.364L78.0669 186.092L70.249 144.082L79.4866 75.672C80.3109 69.5645 85.7562 65.1649 91.8967 65.6566C95.1035 65.9137 97.9807 67.437 99.9989 69.9464C102.017 72.4558 102.89 75.596 102.457 78.7888L95.5049 130.095L99.8823 184.972L78.1176 186.364Z" fill="#E8E9EA"/>
<path d="M170.902 185.377L155.184 80.2981C154.367 77.2169 154.845 73.9925 156.538 71.2524C158.23 68.5124 160.897 66.6441 164.047 65.9914C170.075 64.743 176.027 68.433 177.6 74.3908L192.7 184.058L170.902 185.377Z" fill="#E8E9EA"/>
<path d="M134.175 93.9883C135.241 93.9883 136.104 93.123 136.104 92.0557C136.104 90.9883 135.241 90.123 134.175 90.123C133.109 90.123 132.245 90.9883 132.245 92.0557C132.245 93.123 133.109 93.9883 134.175 93.9883Z" fill="#D6D7D8"/>
<path d="M134.175 108.621C135.241 108.621 136.104 107.756 136.104 106.688C136.104 105.621 135.241 104.756 134.175 104.756C133.109 104.756 132.245 105.621 132.245 106.688C132.245 107.756 133.109 108.621 134.175 108.621Z" fill="#D6D7D8"/>
<path d="M134.175 123.253C135.241 123.253 136.104 122.388 136.104 121.32C136.104 120.253 135.241 119.388 134.175 119.388C133.109 119.388 132.245 120.253 132.245 121.32C132.245 122.388 133.109 123.253 134.175 123.253Z" fill="#D6D7D8"/>
<path d="M134.175 137.886C135.241 137.886 136.104 137.02 136.104 135.953C136.104 134.886 135.241 134.021 134.175 134.021C133.109 134.021 132.245 134.886 132.245 135.953C132.245 137.02 133.109 137.886 134.175 137.886Z" fill="#D6D7D8"/>
<path d="M134.175 152.519C135.241 152.519 136.104 151.653 136.104 150.586C136.104 149.519 135.241 148.653 134.175 148.653C133.109 148.653 132.245 149.519 132.245 150.586C132.245 151.653 133.109 152.519 134.175 152.519Z" fill="#D6D7D8"/>
<path d="M134.175 167.151C135.241 167.151 136.104 166.286 136.104 165.219C136.104 164.151 135.241 163.286 134.175 163.286C133.109 163.286 132.245 164.151 132.245 165.219C132.245 166.286 133.109 167.151 134.175 167.151Z" fill="#D6D7D8"/>
<path d="M134.175 181.784C135.241 181.784 136.104 180.919 136.104 179.852C136.104 178.784 135.241 177.919 134.175 177.919C133.109 177.919 132.245 178.784 132.245 179.852C132.245 180.919 133.109 181.784 134.175 181.784Z" fill="#D6D7D8"/>
<path d="M134.175 196.417C135.241 196.417 136.104 195.552 136.104 194.484C136.104 193.417 135.241 192.552 134.175 192.552C133.109 192.552 132.245 193.417 132.245 194.484C132.245 195.552 133.109 196.417 134.175 196.417Z" fill="#D6D7D8"/>
<path d="M134.177 207.736L97.6654 202.863L96.9622 202.769L78.3019 159.677L67.189 134.021H96.1347L134.177 207.736Z" fill="#176B87"/>
<path d="M280.57 44.2226L303.784 31.4863V67.8756H276.937L280.57 44.2226Z" fill="#2E2E41"/>
<path d="M308.761 52.3356L310.903 70.2006L295.463 100.995L285.879 72.3335L290.385 51.7422L308.761 52.3356Z" fill="#FDB4B4"/>
<path d="M311.702 71.2666H285.042V103.527H311.702V71.2666Z" fill="#176B87"/>
<path d="M333.695 242.109L340.656 346.1L323.544 346.681L300.921 242.981L333.695 242.109Z" fill="#2E2E41"/>
<path d="M292.22 241.528L299.181 345.519L282.069 346.1L259.446 242.4L292.22 241.528Z" fill="#2E2E41"/>
<path d="M351.774 264.165L351.366 264.163L242.354 263.807L242.452 263.42L270.478 152.209L263.458 96.0848C262.128 85.4499 267.812 75.3977 277.603 71.0717L281.138 69.5101L287.853 64.6194L296.443 95.0198L310.199 64.5957L316.259 70.664L329.925 74.2956C338.444 76.5588 343.963 84.8593 342.762 93.6031L342.748 93.664L321.877 153.307L351.774 264.165Z" fill="#E8E9EA"/>
<path d="M283.167 344.918L301.426 345.837L303.088 355.561C303.088 355.561 316.076 372.484 300.474 371.699C284.871 370.913 258.224 374.392 258.526 368.382C258.828 362.372 278.212 359.732 278.212 359.732L283.167 344.918Z" fill="#2E2E41"/>
<path d="M323.631 343.852L341.89 344.771L343.553 354.495C343.553 354.495 356.541 371.418 340.938 370.632C325.335 369.847 298.689 373.326 298.99 367.316C299.292 361.305 318.677 358.666 318.677 358.666L323.631 343.852Z" fill="#2E2E41"/>
<path d="M340.351 204.65C339.926 211.963 335.814 217.671 331.167 217.4C326.52 217.128 323.099 210.98 323.525 203.665C323.655 200.74 324.483 197.889 325.939 195.351L328.13 164.388L342.616 165.727L338.918 196.109C340.07 198.8 340.561 201.729 340.351 204.65Z" fill="#FDB4B4"/>
<path d="M265.909 201.869C265.329 209.172 261.097 214.791 256.457 214.42C251.817 214.05 248.527 207.83 249.108 200.525C249.3 197.604 250.188 194.772 251.698 192.265L254.546 161.355L269.001 163.003L264.658 193.299C265.752 196.015 266.182 198.954 265.909 201.869Z" fill="#FDB4B4"/>
<path d="M342.684 192.478L321.646 191.133L321.671 190.817L325.874 138.129L319.16 88.5845C318.742 85.4984 319.586 82.4629 321.536 80.0375C323.487 77.6118 326.268 76.1394 329.368 75.8908C335.304 75.4222 340.566 79.6684 341.364 85.5718L350.284 151.636L350.275 151.685L342.684 192.478Z" fill="#E8E9EA"/>
<path d="M269.412 190.459L248.34 189.183L248.387 188.85L262.917 83.3044C264.445 77.5075 270.201 73.942 276.024 75.1481C279.07 75.7789 281.647 77.5848 283.283 80.2336C284.919 82.8823 285.381 85.9988 284.585 89.0093L269.412 190.459Z" fill="#E8E9EA"/>
<path d="M295.996 104.327C297.025 104.327 297.859 103.492 297.859 102.461C297.859 101.43 297.025 100.595 295.996 100.595C294.967 100.595 294.132 101.43 294.132 102.461C294.132 103.492 294.967 104.327 295.996 104.327Z" fill="#D6D7D8"/>
<path d="M295.996 118.457C297.025 118.457 297.859 117.622 297.859 116.591C297.859 115.56 297.025 114.725 295.996 114.725C294.967 114.725 294.132 115.56 294.132 116.591C294.132 117.622 294.967 118.457 295.996 118.457Z" fill="#D6D7D8"/>
<path d="M295.996 132.588C297.025 132.588 297.859 131.753 297.859 130.722C297.859 129.691 297.025 128.855 295.996 128.855C294.967 128.855 294.132 129.691 294.132 130.722C294.132 131.753 294.967 132.588 295.996 132.588Z" fill="#D6D7D8"/>
<path d="M295.996 146.719C297.025 146.719 297.859 145.883 297.859 144.853C297.859 143.822 297.025 142.986 295.996 142.986C294.967 142.986 294.132 143.822 294.132 144.853C294.132 145.883 294.967 146.719 295.996 146.719Z" fill="#D6D7D8"/>
<path d="M295.996 160.85C297.025 160.85 297.859 160.014 297.859 158.984C297.859 157.953 297.025 157.117 295.996 157.117C294.967 157.117 294.132 157.953 294.132 158.984C294.132 160.014 294.967 160.85 295.996 160.85Z" fill="#D6D7D8"/>
<path d="M295.996 174.981C297.025 174.981 297.859 174.145 297.859 173.114C297.859 172.084 297.025 171.248 295.996 171.248C294.967 171.248 294.132 172.084 294.132 173.114C294.132 174.145 294.967 174.981 295.996 174.981Z" fill="#D6D7D8"/>
<path d="M295.996 189.111C297.025 189.111 297.859 188.275 297.859 187.244C297.859 186.214 297.025 185.378 295.996 185.378C294.967 185.378 294.132 186.214 294.132 187.244C294.132 188.275 294.967 189.111 295.996 189.111Z" fill="#D6D7D8"/>
<path d="M295.996 203.241C297.025 203.241 297.859 202.406 297.859 201.375C297.859 200.344 297.025 199.509 295.996 199.509C294.967 199.509 294.132 200.344 294.132 201.375C294.132 202.406 294.967 203.241 295.996 203.241Z" fill="#D6D7D8"/>
<path d="M298.825 61.4531C308.451 61.4531 316.255 53.6375 316.255 43.9966C316.255 34.3556 308.451 26.54 298.825 26.54C289.198 26.54 281.395 34.3556 281.395 43.9966C281.395 53.6375 289.198 61.4531 298.825 61.4531Z" fill="#FDB4B4"/>
<path d="M307.959 23.618C308.794 25.3193 307.469 27.4444 305.716 28.1596C303.963 28.8749 301.983 28.5851 300.114 28.2873C298.244 27.9896 296.261 27.7073 294.513 28.4352C292.252 29.3771 290.977 31.7397 289.878 33.9321C287.828 38.0251 285.777 42.118 283.726 46.2109C282.724 48.2107 281.7 50.3003 281.68 52.5376C281.645 56.6443 284.898 59.9263 286.648 63.6403C288.779 68.1623 288.603 73.704 286.19 78.0815C283.777 82.459 279.188 85.5606 274.232 86.1639C272.928 86.3226 271.548 86.3054 270.375 85.7121C269.203 85.1188 268.308 83.823 268.525 82.5255C268.95 79.9877 272.822 79.3947 273.533 76.922C273.904 75.6312 273.247 74.2527 272.36 73.2445C271.474 72.2363 270.353 71.4499 269.508 70.407C267.559 68.0023 267.429 64.2902 269.205 61.7548C270.249 60.2647 271.864 59.1577 272.539 57.4674C273.114 56.0267 272.905 54.4073 272.687 52.8711C272.407 50.8972 272.127 48.9233 271.847 46.9493C271.521 44.6463 271.199 42.2607 271.845 40.0262C273.324 34.9056 279.097 32.5007 282.482 28.3876C284.056 26.4763 285.114 24.1776 286.728 22.3007C289.436 19.151 293.701 17.4134 297.835 17.7746C301.97 18.1358 305.87 20.5865 307.993 24.1583" fill="#2E2E41"/>
<path d="M305.207 23.9404C304.356 24.2454 304.04 25.3562 304.285 26.2281C304.53 27.0999 305.172 27.7927 305.759 28.4813C312.404 36.2693 313.948 48.0496 309.536 57.2917C308.363 59.75 306.8 62.0635 306.167 64.7136C305.706 66.6418 305.731 68.7569 304.663 70.4262C303.575 72.1257 301.421 73.2645 301.207 75.2716C301.071 76.5597 301.855 77.8109 302.905 78.5661C303.956 79.3213 305.24 79.6668 306.502 79.9485C309.784 80.6808 313.139 81.0806 316.5 81.1398C317.596 81.1591 318.726 81.1353 319.732 80.698C320.737 80.2607 321.595 79.3124 321.606 78.2148C321.615 77.3522 321.119 76.5564 321.055 75.696C320.865 73.1181 324.329 71.7466 325.004 69.2516C325.447 67.6113 324.573 65.9233 323.642 64.5026C322.711 63.0819 321.648 61.59 321.671 59.8907C321.693 58.264 322.713 56.8313 323.109 55.2535C323.657 53.0711 322.984 50.7883 322.316 48.6396C321.748 46.8128 321.181 44.986 320.613 43.1592C320.009 41.2173 319.406 39.2753 318.803 37.3334C317.749 33.9431 316.643 30.4547 314.363 27.7355C312.084 25.0164 308.306 23.2342 304.938 24.3444" fill="#2E2E41"/>
<path d="M317.084 91.5855L315.89 91.2368C318.379 82.6898 313.012 66.74 312.958 66.58L314.136 66.1777C314.363 66.8468 319.683 82.6643 317.084 91.5855Z" fill="#3F3C57"/>
<path d="M316.487 101.402C319.358 101.402 321.685 99.0714 321.685 96.1962C321.685 93.321 319.358 90.9902 316.487 90.9902C313.616 90.9902 311.289 93.321 311.289 96.1962C311.289 99.0714 313.616 101.402 316.487 101.402Z" fill="#3F3C57"/>
<path d="M282.333 114.628H279.18C278.836 114.628 278.558 114.349 278.558 114.005C278.558 113.661 278.836 113.382 279.18 113.382H282.333C283.201 113.382 284.018 113.043 284.631 112.427C285.244 111.811 285.582 110.993 285.58 110.123L285.541 90.6764C285.541 86.4518 282.111 83.0159 277.894 83.0159C273.677 83.0159 270.245 86.4518 270.245 90.6752L270.284 108.878C270.287 110.653 271.733 112.109 273.506 112.123L275.67 112.139C276.013 112.142 276.29 112.423 276.287 112.767C276.285 113.11 276.006 113.386 275.665 113.386H275.66L273.496 113.369C271.044 113.35 269.044 111.336 269.039 108.88L269.001 90.6764C269.001 85.7647 272.99 81.7695 277.894 81.7695C282.797 81.7695 286.786 85.7647 286.786 90.6752L286.824 110.121C286.827 111.324 286.361 112.456 285.512 113.307C284.663 114.159 283.534 114.628 282.333 114.628Z" fill="#3F3C57"/>
<path d="M275.665 114.97C276.883 114.97 277.871 113.981 277.871 112.761C277.871 111.542 276.883 110.553 275.665 110.553C274.447 110.553 273.46 111.542 273.46 112.761C273.46 113.981 274.447 114.97 275.665 114.97Z" fill="#3F3C57"/>
<path d="M279.18 116.213C280.398 116.213 281.385 115.224 281.385 114.005C281.385 112.785 280.398 111.796 279.18 111.796C277.962 111.796 276.975 112.785 276.975 114.005C276.975 115.224 277.962 116.213 279.18 116.213Z" fill="#3F3C57"/>
<path d="M151.866 82.2438L150.672 81.8951C153.161 73.3481 147.854 57.1513 147.8 56.9912L149.294 58.1186C149.521 58.7877 154.465 73.3225 151.866 82.2438Z" fill="#3F3C57"/>
<path d="M109.872 83.7623L111.067 83.4136C108.578 74.8667 113.945 58.9169 113.999 58.7568L112.721 59.6141C112.493 60.2833 107.274 74.8411 109.872 83.7623Z" fill="#3F3C57"/>
<path d="M151.269 92.0614C154.14 92.0614 156.467 89.7306 156.467 86.8554C156.467 83.9802 154.14 81.6494 151.269 81.6494C148.398 81.6494 146.071 83.9802 146.071 86.8554C146.071 89.7306 148.398 92.0614 151.269 92.0614Z" fill="#3F3C57"/>
<path d="M115.414 115.777H112.262C111.918 115.777 111.639 115.498 111.639 115.154C111.639 114.81 111.918 114.531 112.262 114.531H115.414C116.283 114.531 117.099 114.192 117.713 113.576C118.326 112.961 118.663 112.142 118.661 111.273L118.623 91.8259C118.623 87.6012 115.192 84.1653 110.975 84.1653C106.758 84.1653 103.327 87.6012 103.327 91.8246L103.365 110.027C103.369 111.803 104.814 113.258 106.588 113.272L108.751 113.289C109.095 113.291 109.371 113.572 109.369 113.917C109.366 114.259 109.088 114.535 108.746 114.535H108.742L106.578 114.519C104.125 114.5 102.126 112.486 102.121 110.029L102.083 91.8259C102.083 86.9141 106.072 82.9189 110.975 82.9189C115.878 82.9189 119.867 86.9141 119.867 91.8246L119.906 111.27C119.908 112.473 119.442 113.605 118.593 114.456C117.745 115.308 116.615 115.777 115.414 115.777Z" fill="#3F3C57"/>
<path d="M108.747 116.121C109.965 116.121 110.952 115.132 110.952 113.912C110.952 112.692 109.965 111.703 108.747 111.703C107.529 111.703 106.542 112.692 106.542 113.912C106.542 115.132 107.529 116.121 108.747 116.121Z" fill="#3F3C57"/>
<path d="M112.262 117.363C113.48 117.363 114.467 116.374 114.467 115.154C114.467 113.934 113.48 112.945 112.262 112.945C111.044 112.945 110.056 113.934 110.056 115.154C110.056 116.374 111.044 117.363 112.262 117.363Z" fill="#3F3C57"/>
</g>
<defs>
<clipPath id="clip0_225_1224">
<rect width="431" height="372" fill="white"/>
</clipPath>
</defs>
</svg>
